<svg xmlns="http://www.w3.org/2000/svg" viewBox="0 0 6.41 10.41"><defs><style>.cls-1{fill:#1ba0e1;}.cls-2{fill:#fdfefe;}</style></defs><g id="圖層_2" data-name="圖層 2"><g id="圖層_2-2" data-name="圖層 2"><path class="cls-1" d="M0,5.21V.06S0,0,.06,0h6.3s0,0,0,.06v10.3s0,.05,0,.05H.06S0,10.4,0,10.36Zm1.35,5,0,0L6.26,5.29s0-.06,0-.1L1.38.32s0,0-.09,0C1,.63.68.93.37,1.24a.07.07,0,0,0,0,.1L4.24,5.2s0,0,0,.09L.7,8.82l-.34.34s0,0,0,.07l1,.95Z"/><path class="cls-2" d="M1.35,10.2l0,0L.36,9.23s0,0,0-.07L.7,8.82,4.24,5.29s0-.06,0-.09L.37,1.34a.07.07,0,0,1,0-.1L1.29.32s.06,0,.09,0L6.26,5.19s0,.06,0,.1L1.39,10.16Z"/></g></g></svg>