<svg xmlns="http://www.w3.org/2000/svg" viewBox="0 0 30.62 23.02"><g id="圖層_2" data-name="圖層 2"><g id="圖層_1-2" data-name="圖層 1"><path d="M9.17,15.15c0-1.71,0-3.42,0-5.14A2.34,2.34,0,0,1,10,8.18a2.64,2.64,0,0,1,1.9-.8c4.84,0,9.67,0,14.51,0,.65,0,1.3,0,1.94.1a2.42,2.42,0,0,1,1.86,1.24,2.65,2.65,0,0,1,.45,1.5q0,5,0,10a2.72,2.72,0,0,1-1.3,2.34,3.22,3.22,0,0,1-1.12.37,4.86,4.86,0,0,1-1,.07C23.45,23,19.73,23,16,23c-1.46,0-2.91-.06-4.37-.1a2.59,2.59,0,0,1-2.22-1.51,1.89,1.89,0,0,1-.23-.88C9.16,18.74,9.17,17,9.17,15.15Zm20-2.05H16.65c-1.83,0-3.65,0-5.48.05-.19,0-.34,0-.34.28,0,2.26,0,4.52,0,6.78A1,1,0,0,0,12,21.27l15.12,0c.36,0,.71,0,1.07,0a1,1,0,0,0,1-1.06V13.1Zm0-2.62c.1-.89-.27-1.33-1.12-1.36-.41,0-.83,0-1.24,0-4.92,0-9.83,0-14.75,0a1.2,1.2,0,0,0-1.14,1.43Z"/><path d="M21.49,5.58H19.21c-2.36,0-4.72,0-7.09,0A4.55,4.55,0,0,0,10,5.92a4.19,4.19,0,0,0-2.6,3.87c0,3.26,0,6.51,0,9.77a3.22,3.22,0,0,0,.36,1.66,2.05,2.05,0,0,1,.13.35,5.91,5.91,0,0,1-.92,0,2.71,2.71,0,0,1-2.23-1.56c-1.24-2.49-2.5-5-3.74-7.47C.77,12,.5,11.47.24,10.91A2.67,2.67,0,0,1,1.38,7.47C3.73,6.26,6.09,5.08,8.46,3.9S13.4,1.48,15.88.29a2.68,2.68,0,0,1,3,.37,1.8,1.8,0,0,1,.48.55c.71,1.36,1.39,2.73,2.09,4.1A2.48,2.48,0,0,1,21.49,5.58Z"/><path d="M15.1,19.54c-1.06.75-2.06.74-2.71,0a1.78,1.78,0,0,1,0-2.33c.64-.72,1.62-1,2.79,0A1.74,1.74,0,0,1,17,16.63a1.43,1.43,0,0,1,.95.64,1.77,1.77,0,0,1-.16,2.32A1.85,1.85,0,0,1,15.1,19.54Z"/></g></g></svg>