<svg xmlns="http://www.w3.org/2000/svg" viewBox="0 0 24.18 24.21"><defs><style>.cls-1{fill:#efefef;}.cls-2{fill:#0180ef;}.cls-3{fill:#fefefe;}</style></defs><g id="圖層_2" data-name="圖層 2"><g id="圖層_1-2" data-name="圖層 1"><path class="cls-1" d="M24.18,12.11v12c0,.13,0,.15-.15.15H.15c-.12,0-.15,0-.15-.15V.15C0,0,0,0,.15,0H24c.12,0,.15,0,.15.15Zm-12.1,12a12,12,0,1,0-12-12A12,12,0,0,0,12.08,24.1Z" transform="translate(0 0)"/><path class="cls-2" d="M12.08,24.1a12,12,0,1,1,12-12A12,12,0,0,1,12.08,24.1Zm10.5-12A10.5,10.5,0,1,0,12,22.58,10.51,10.51,0,0,0,22.58,12.1Z" transform="translate(0 0)"/><path class="cls-3" d="M22.58,12.1A10.5,10.5,0,1,1,12.09,1.59,10.49,10.49,0,0,1,22.58,12.1ZM11.63,16.69c-.6.42-.79.91-.56,1.44a1.07,1.07,0,0,0,1.2.66,1.11,1.11,0,0,0,.91-1c0-.58-.31-1-1.07-1.17l.27,0,.31,0c.13,0,.14-.05.13-.16a4.14,4.14,0,0,1,1.51-3.62,5.09,5.09,0,0,0,1.86-4.41,4.14,4.14,0,0,0-8.25.26c0,.1,0,.13.13.13H9.16c.28,0,.28,0,.31-.27a.5.5,0,0,0,0-.12A2.61,2.61,0,0,1,14.58,8a3.44,3.44,0,0,1-.63,3,5.11,5.11,0,0,1-.8.81,5.64,5.64,0,0,0-1.85,4.7c0,.22,0,.22.24.22C11.57,16.67,11.61,16.66,11.63,16.69Z" transform="translate(0 0)"/><path class="cls-2" d="M11.63,16.69s-.06,0-.09,0c-.22,0-.23,0-.24-.22a5.64,5.64,0,0,1,1.85-4.7,5.11,5.11,0,0,0,.8-.81,3.44,3.44,0,0,0,.63-3,2.61,2.61,0,0,0-5.09.37.5.5,0,0,1,0,.12c0,.27,0,.27-.31.27H8.07c-.1,0-.13,0-.13-.13a4.14,4.14,0,0,1,8.25-.26,5.09,5.09,0,0,1-1.86,4.41,4.14,4.14,0,0,0-1.51,3.62c0,.11,0,.16-.13.16l-.31,0-.27,0c.76.22,1.1.59,1.07,1.17a1.11,1.11,0,0,1-.91,1,1.07,1.07,0,0,1-1.2-.66C10.84,17.6,11,17.11,11.63,16.69Z" transform="translate(0 0)"/></g></g></svg>