<svg xmlns="http://www.w3.org/2000/svg" viewBox="0 0 31.21 31.31"><defs><style>.cls-1{fill:#eeeeed;}.cls-2{fill:#2c7038;}.cls-3{fill:#599a34;}.cls-4{fill:#fefefd;}</style></defs><g id="圖層_2" data-name="圖層 2"><g id="圖層_1-2" data-name="圖層 1"><path class="cls-1" d="M0,31.3Q0,15.77,0,.23C0,0,0,0,.23,0H31c.19,0,.24,0,.24.23q0,15.42,0,30.84c0,.2-.05.24-.24.24ZM31,15.69A15.39,15.39,0,1,0,15.75,31.06,15.38,15.38,0,0,0,31,15.69Z" transform="translate(0 0)"/><path class="cls-2" d="M31,15.69A15.39,15.39,0,1,1,15.41.29,15.38,15.38,0,0,1,31,15.69Zm-.79,0a14.6,14.6,0,1,0-14.93,14.6A14.58,14.58,0,0,0,30.18,15.68Z" transform="translate(0 0)"/><path class="cls-3" d="M30.18,15.68A14.6,14.6,0,1,1,16.09,1.08,14.58,14.58,0,0,1,30.18,15.68ZM12.73,18c-.1,0-.14-.1-.18-.15a3.73,3.73,0,0,0-1.29-.94A2.61,2.61,0,0,0,7.8,18.26a.67.67,0,0,0,.16.85A14.42,14.42,0,0,1,10.8,22.9a.45.45,0,0,0,.24.21,4.55,4.55,0,0,0,3.23.09.67.67,0,0,0,.54-.55,3.9,3.9,0,0,1,.21-.57A34.21,34.21,0,0,1,23,9.91a1,1,0,0,0,.34-1.08,1.09,1.09,0,0,0-.88-.76A4.13,4.13,0,0,0,21.19,8a3.37,3.37,0,0,0-2.19.9,30.24,30.24,0,0,0-6.09,8.72Z" transform="translate(0 0)"/><path class="cls-4" d="M12.73,18l.18-.41A30.24,30.24,0,0,1,19,8.86,3.37,3.37,0,0,1,21.19,8a4.13,4.13,0,0,1,1.31.11,1.09,1.09,0,0,1,.88.76A1,1,0,0,1,23,9.91a34.21,34.21,0,0,0-8,12.17,3.9,3.9,0,0,0-.21.57.67.67,0,0,1-.54.55A4.55,4.55,0,0,1,11,23.11a.45.45,0,0,1-.24-.21A14.42,14.42,0,0,0,8,19.11a.67.67,0,0,1-.16-.85,2.61,2.61,0,0,1,3.46-1.36,3.73,3.73,0,0,1,1.29.94C12.59,17.89,12.63,18,12.73,18Z" transform="translate(0 0)"/></g></g></svg>