<svg xmlns="http://www.w3.org/2000/svg" viewBox="0 0 24.18 21.88"><defs><style>.cls-1{fill:#efefef;}.cls-2{fill:#3499fe;}.cls-3{fill:#fefefe;}</style></defs><g id="圖層_2" data-name="圖層 2"><g id="圖層_1-2" data-name="圖層 1"><path class="cls-1" d="M12.08,0H24c.12,0,.14,0,.14.15V21.72c0,.14,0,.16-.17.16H.16c-.12,0-.16,0-.16-.15V.16C0,0,0,0,.17,0Zm11.3.87-.83.28a14.75,14.75,0,0,1-6.28,1,13.19,13.19,0,0,1-3.46-.68A17.91,17.91,0,0,0,8,.43,17,17,0,0,0,4.82.55a17.6,17.6,0,0,0-3.63.93.26.26,0,0,0-.22.3q0,9.75,0,19.51s0,.06,0,.08,0,.15.15.15h1.6c.26,0,.24,0,.24-.23,0-3,0-6,0-9,0-.14,0-.19.18-.22a14.48,14.48,0,0,1,4.49-.54,13.53,13.53,0,0,1,3.88.69,18,18,0,0,0,4.7,1A16.37,16.37,0,0,0,19.83,13a18.81,18.81,0,0,0,3.37-.89.23.23,0,0,0,.18-.26V.87Z" transform="translate(0 0)"/><path class="cls-2" d="M23.38.87v11a.23.23,0,0,1-.18.26,18.81,18.81,0,0,1-3.37.89,16.37,16.37,0,0,1-3.63.16,18,18,0,0,1-4.7-1,13.53,13.53,0,0,0-3.88-.69,14.48,14.48,0,0,0-4.49.54c-.13,0-.18.08-.18.22,0,3,0,6,0,9,0,.26,0,.23-.24.23H1.12c-.11,0-.16,0-.15-.15s0-.05,0-.08Q1,11.54,1,1.78a.26.26,0,0,1,.22-.3A17.6,17.6,0,0,1,4.82.55,17,17,0,0,1,8,.43a17.91,17.91,0,0,1,4.8,1,13.19,13.19,0,0,0,3.46.68,14.75,14.75,0,0,0,6.28-1ZM3,6.5V9.86C3,10,3,10,3.13,10A16.61,16.61,0,0,1,8,9.55a15.68,15.68,0,0,1,4.23.81,15.58,15.58,0,0,0,4.38.89,14.3,14.3,0,0,0,4.64-.55c.11,0,.16-.07.16-.2,0-2.25,0-4.49,0-6.74,0-.13,0-.17-.16-.13a16,16,0,0,1-3.08.46A16.26,16.26,0,0,1,12,3.24a15,15,0,0,0-4.6-.86,14.13,14.13,0,0,0-4.29.55C3,3,3,3,3,3.15,3,4.27,3,5.38,3,6.5Z" transform="translate(0 0)"/><path class="cls-3" d="M3,6.5C3,5.38,3,4.27,3,3.15,3,3,3,3,3.12,2.93a14.13,14.13,0,0,1,4.29-.55,15,15,0,0,1,4.6.86,16.26,16.26,0,0,0,6.15.85,16,16,0,0,0,3.08-.46c.15,0,.16,0,.16.13,0,2.25,0,4.49,0,6.74,0,.13-.05.17-.16.2a14.3,14.3,0,0,1-4.64.55,15.58,15.58,0,0,1-4.38-.89A15.68,15.68,0,0,0,8,9.55,16.61,16.61,0,0,0,3.13,10C3,10,3,10,3,9.86Z" transform="translate(0 0)"/></g></g></svg>