<svg xmlns="http://www.w3.org/2000/svg" viewBox="0 0 44.96 37.52"><g id="圖層_2" data-name="圖層 2"><g id="圖層_1-2" data-name="圖層 1"><path d="M39.35,31.82c0-1.17,0-2.32,0-3.47,0-.09.24-.25.38-.26.47,0,.94,0,1.45,0,0-.24,0-.42,0-.6q0-11.57,0-23.13c0-.49-.14-.61-.62-.61H3.81V28.08h.68c5.79,0,11.58,0,17.37,0,.5,0,.69.1.66.64,0,.9,0,1.8,0,2.7,0,.31-.07.46-.43.46H.19a1.08,1.08,0,0,1-.19,0V0H45V31.82Z"/><path d="M35.63,37.52c-1.3-.78-2.51-1.42-3.62-2.21a1.58,1.58,0,0,0-2.11,0c-1,.69-2.08,1.27-3.13,1.89-.14.08-.3.14-.51.24,0-.22,0-.38,0-.54,0-4,0-8,0-12,0-.44.1-.64.56-.58a3.37,3.37,0,0,0,.71,0,2.88,2.88,0,0,1,1.86.47,2.92,2.92,0,0,0,3.35-.1A2.08,2.08,0,0,1,34,24.33c.5,0,1.22-.15,1.46.11s.13,1,.13,1.5c0,3.61,0,7.23,0,10.84Z"/><path d="M30.88,22.6a6.35,6.35,0,0,1-1-.51,2.58,2.58,0,0,0-1.78-.58,1.54,1.54,0,0,1-1.85-1.34,2.14,2.14,0,0,0-.9-1.24c-1.07-.75-1.2-1-.79-2.2a2.67,2.67,0,0,0-.08-1.87A1.32,1.32,0,0,1,25,13.1a2.73,2.73,0,0,0,1.29-1.68,1.36,1.36,0,0,1,1.55-1.1A3,3,0,0,0,30,9.65a1.42,1.42,0,0,1,1.88,0,2.91,2.91,0,0,0,2.06.66,1.37,1.37,0,0,1,1.59,1.12,2.68,2.68,0,0,0,1.26,1.64,1.31,1.31,0,0,1,.59,1.8,2.71,2.71,0,0,0,0,2.11,1.29,1.29,0,0,1-.56,1.72,2.82,2.82,0,0,0-1.32,1.72A1.36,1.36,0,0,1,34,21.51a3,3,0,0,0-2.12.65A4.42,4.42,0,0,1,30.88,22.6Zm2.82-6.7a2.81,2.81,0,0,0-2.76-2.76A2.77,2.77,0,1,0,33.7,15.9Z"/><path d="M20.63,16.83H7.49c0-.55,0-1.08,0-1.6,0-.1.24-.25.38-.25.88,0,1.76,0,2.64,0h9.33c.88,0,.77-.1.77.8C20.64,16.1,20.63,16.44,20.63,16.83Z"/><path d="M20.57,11.25H20c-4,0-7.94,0-11.9,0-.47,0-.66-.09-.64-.6,0-1.32,0-1.32,1.34-1.32H20c.67,0,.67,0,.67.7v1Z"/><path d="M15,20.59v1.86c-.17,0-.31,0-.46,0-2.17,0-4.34,0-6.51,0-.38,0-.53-.08-.53-.51,0-1.4,0-1.4,1.4-1.4H15Z"/></g></g></svg>